# Blender 3.6.5
# www.blender.org
mtllib TrafficLight.mtl
o Plane
v -0.488872 0.373485 0.921508
v 1.000000 0.000000 1.985510
v -0.488872 0.373485 -0.914219
v 1.000000 0.000000 -1.978222
v -0.488872 1.017860 -0.914219
v -0.488872 1.017860 0.921508
v 1.000000 1.391345 1.985510
v 1.000000 1.391345 -1.978222
v 1.000000 1.284973 1.058806
v 1.000000 1.172426 1.405188
v 1.000000 0.877776 1.619264
v 1.000000 0.513569 1.619264
v 1.000000 0.218919 1.405188
v 1.000000 0.106372 1.058806
v 1.000000 0.218919 0.712424
v 1.000000 0.513569 0.498348
v 1.000000 0.877776 0.498348
v 1.000000 1.172426 0.712424
v 1.000000 1.284973 -1.037330
v 1.000000 1.172426 -0.690948
v 1.000000 0.877776 -0.476872
v 1.000000 0.513569 -0.476872
v 1.000000 0.218919 -0.690948
v 1.000000 0.106372 -1.037330
v 1.000000 0.218919 -1.383712
v 1.000000 0.513569 -1.597788
v 1.000000 0.877776 -1.597788
v 1.000000 1.172426 -1.383712
v 1.216102 1.030239 1.301883
v 1.216102 1.109220 1.058806
v 1.216102 0.823466 1.452113
v 1.216102 0.567879 1.452113
v 1.216102 0.361106 1.301883
v 1.216102 0.282125 1.058806
v 1.216102 0.361106 0.815729
v 1.216102 0.567879 0.665500
v 1.216102 0.823466 0.665500
v 1.216102 1.030239 0.815729
v 1.164540 1.037912 -0.788678
v 1.164540 1.118704 -1.037330
v 1.164540 0.826396 -0.635003
v 1.164540 0.564948 -0.635003
v 1.164540 0.353433 -0.788678
v 1.164539 0.272641 -1.037330
v 1.164539 0.353433 -1.285982
v 1.164539 0.564948 -1.439657
v 1.164540 0.826396 -1.439657
v 1.164540 1.037912 -1.285982
v 1.526929 0.956007 -0.825868
v 1.446494 0.795111 -0.695177
v 1.347072 0.596233 -0.695177
v 1.266637 0.435338 -0.825868
v 1.235914 0.373881 -1.037330
v 1.266637 0.435338 -1.248793
v 1.347072 0.596233 -1.379484
v 1.446494 0.795111 -1.379484
v 1.526929 0.956007 -1.248793
v 1.557652 1.017463 -1.037330
v 1.489528 0.971553 1.270269
v 1.432208 0.801050 1.400960
v 1.361358 0.590295 1.400960
v 1.304038 0.419791 1.270269
v 1.282144 0.354665 1.058806
v 1.304038 0.419791 0.847344
v 1.361358 0.590295 0.716653
v 1.432208 0.801050 0.716653
v 1.489528 0.971553 0.847344
v 1.511422 1.036680 1.058806
v 1.468776 0.909824 1.222953
v 1.424282 0.777471 1.324402
v 1.369284 0.613874 1.324402
v 1.324790 0.481521 1.222953
v 1.307795 0.430966 1.058806
v 1.324790 0.481521 0.894659
v 1.369284 0.613874 0.793211
v 1.424282 0.777471 0.793211
v 1.468776 0.909824 0.894659
v 1.485771 0.960378 1.058806
v 1.495981 0.894102 -0.876152
v 1.434673 0.771466 -0.776538
v 1.358893 0.619879 -0.776538
v 1.297585 0.497243 -0.876152
v 1.274167 0.450400 -1.037330
v 1.297585 0.497243 -1.198509
v 1.358893 0.619879 -1.298123
v 1.434673 0.771466 -1.298123
v 1.495981 0.894102 -1.198509
v 1.519399 0.940944 -1.037330
vn -0.2433 -0.9699 -0.0000
vn -0.2433 0.9699 -0.0000
vn -0.5814 -0.0000 0.8136
vn 1.0000 -0.0000 -0.0000
vn -1.0000 -0.0000 -0.0000
vn -0.5814 -0.0000 -0.8136
vn 0.8945 -0.4472 -0.0000
vn 0.9479 -0.3187 -0.0000
vn 0.6118 -0.0000 -0.7910
vn 0.6118 0.7523 0.2444
vn 0.6929 -0.6857 -0.2228
vn 0.6118 0.4649 -0.6399
vn 0.6118 0.4649 0.6399
vn 0.6929 -0.4238 -0.5833
vn 0.6118 0.7523 -0.2444
vn 0.6118 -0.0000 0.7910
vn 0.6929 -0.0000 -0.7210
vn 0.6929 0.6857 0.2228
vn 0.6118 -0.4649 0.6399
vn 0.6929 0.4238 -0.5833
vn 0.6929 0.4238 0.5833
vn 0.6118 -0.7523 0.2444
vn 0.6929 0.6857 -0.2228
vn 0.6929 -0.0000 0.7210
vn 0.6118 -0.7523 -0.2444
vn 0.6929 -0.4238 0.5833
vn 0.6118 -0.4649 -0.6399
vn 0.6929 -0.6857 0.2228
vn 0.2192 0.5618 0.7977
vn 0.2504 -0.0541 0.9666
vn 0.4620 -0.5991 0.6540
vn 0.7328 -0.6624 0.1559
vn 0.7328 -0.6624 -0.1559
vn 0.4620 -0.5991 -0.6540
vn 0.2504 -0.0541 -0.9666
vn 0.2192 0.5618 -0.7977
vn 0.2386 0.9232 -0.3013
vn 0.2386 0.9232 0.3013
vn 0.2274 0.5591 0.7973
vn 0.2722 -0.0414 0.9614
vn 0.4440 -0.5775 0.6850
vn 0.6590 -0.7255 0.1983
vn 0.6590 -0.7255 -0.1983
vn 0.4440 -0.5775 -0.6850
vn 0.2722 -0.0414 -0.9614
vn 0.2274 0.5591 -0.7973
vn 0.2302 0.9244 -0.3042
vn 0.2302 0.9244 0.3042
vt 0.000000 0.000000
vt 0.000000 1.000000
vt 1.000000 1.000000
vt 1.000000 0.000000
s 0
usemtl Semaforo
f 20/1/5 19/1/5 28/1/5 27/1/5 26/1/5 25/1/5 24/1/5 23/1/5 22/1/5 21/1/5
f 10/1/5 9/1/5 18/1/5 17/1/5 16/1/5 15/1/5 14/1/5 13/1/5 12/1/5 11/1/5
usemtl Base
f 1/1/1 3/2/1 4/3/1 2/4/1
f 6/1/2 7/4/2 8/3/2 5/2/2
f 1/1/3 2/4/3 7/4/3 6/1/3
f 2/4/4 4/3/4 8/3/4 7/4/4
f 3/2/5 1/1/5 6/1/5 5/2/5
f 4/3/6 3/2/6 5/2/6 8/3/6
usemtl Borde
f 16/1/9 17/1/9 37/1/9 36/1/9
f 9/1/10 10/1/10 29/1/10 30/1/10
f 24/1/11 25/1/11 45/1/11 44/1/11
f 17/1/12 18/1/12 38/1/12 37/1/12
f 10/1/13 11/1/13 31/1/13 29/1/13
f 25/1/14 26/1/14 46/1/14 45/1/14
f 18/1/15 9/1/15 30/1/15 38/1/15
f 11/1/16 12/1/16 32/1/16 31/1/16
f 26/1/17 27/1/17 47/1/17 46/1/17
f 19/1/18 20/1/18 39/1/18 40/1/18
f 12/1/19 13/1/19 33/1/19 32/1/19
f 27/1/20 28/1/20 48/1/20 47/1/20
f 20/1/21 21/1/21 41/1/21 39/1/21
f 13/1/22 14/1/22 34/1/22 33/1/22
f 28/1/23 19/1/23 40/1/23 48/1/23
f 21/1/24 22/1/24 42/1/24 41/1/24
f 14/1/25 15/1/25 35/1/25 34/1/25
f 22/1/26 23/1/26 43/1/26 42/1/26
f 15/1/27 16/1/27 36/1/27 35/1/27
f 23/1/28 24/1/28 44/1/28 43/1/28
f 39/1/29 41/1/29 50/1/29 49/1/29
f 41/1/30 42/1/30 51/1/30 50/1/30
f 42/1/31 43/1/31 52/1/31 51/1/31
f 43/1/32 44/1/32 53/1/32 52/1/32
f 44/1/33 45/1/33 54/1/33 53/1/33
f 45/1/34 46/1/34 55/1/34 54/1/34
f 46/1/35 47/1/35 56/1/35 55/1/35
f 47/1/36 48/1/36 57/1/36 56/1/36
f 48/1/37 40/1/37 58/1/37 57/1/37
f 40/1/38 39/1/38 49/1/38 58/1/38
f 29/1/39 31/1/39 60/1/39 59/1/39
f 31/1/40 32/1/40 61/1/40 60/1/40
f 32/1/41 33/1/41 62/1/41 61/1/41
f 33/1/42 34/1/42 63/1/42 62/1/42
f 34/1/43 35/1/43 64/1/43 63/1/43
f 35/1/44 36/1/44 65/1/44 64/1/44
f 36/1/45 37/1/45 66/1/45 65/1/45
f 37/1/46 38/1/46 67/1/46 66/1/46
f 38/1/47 30/1/47 68/1/47 67/1/47
f 30/1/48 29/1/48 59/1/48 68/1/48
usemtl Verde
f 59/1/8 60/1/8 70/1/8 69/1/8
f 60/1/8 61/1/8 71/1/8 70/1/8
f 61/1/8 62/1/8 72/1/8 71/1/8
f 62/1/8 63/1/8 73/1/8 72/1/8
f 63/1/8 64/1/8 74/1/8 73/1/8
f 64/1/8 65/1/8 75/1/8 74/1/8
f 65/1/8 66/1/8 76/1/8 75/1/8
f 66/1/8 67/1/8 77/1/8 76/1/8
f 67/1/8 68/1/8 78/1/8 77/1/8
f 68/1/8 59/1/8 69/1/8 78/1/8
usemtl Rojo
f 49/1/7 50/1/7 80/1/7 79/1/7
f 50/1/7 51/1/7 81/1/7 80/1/7
f 51/1/7 52/1/7 82/1/7 81/1/7
f 52/1/7 53/1/7 83/1/7 82/1/7
f 53/1/7 54/1/7 84/1/7 83/1/7
f 54/1/7 55/1/7 85/1/7 84/1/7
f 55/1/7 56/1/7 86/1/7 85/1/7
f 56/1/7 57/1/7 87/1/7 86/1/7
f 57/1/7 58/1/7 88/1/7 87/1/7
f 58/1/7 49/1/7 79/1/7 88/1/7
usemtl Blanco
f 79/1/7 80/1/7 81/1/7 82/1/7 83/1/7 84/1/7 85/1/7 86/1/7 87/1/7 88/1/7
f 69/1/8 70/1/8 71/1/8 72/1/8 73/1/8 74/1/8 75/1/8 76/1/8 77/1/8 78/1/8
